<svg width="125" height="122" viewBox="0 0 125 122" fill="none" xmlns="http://www.w3.org/2000/svg">
<g clip-path="url(#clip0_924_1064)">
<path d="M78.0586 5.65584L51.7425 64.214C51.1232 65.5916 51.0173 67.1453 51.4438 68.5942C51.8704 70.043 52.8013 71.2915 54.0683 72.1137L60.1992 76.1005C61.4846 76.9342 63.0288 77.2731 64.5451 77.0543C66.0614 76.8355 67.4468 76.0738 68.4439 74.9107L109.151 27.4952" stroke="white" stroke-opacity="0.08" stroke-width="12.6513" stroke-linecap="round" stroke-linejoin="round"/>
<path d="M129.94 82.4045C122.866 79.5493 115.229 77.9391 106.74 79.7435C94.006 82.4502 85.5341 99.4871 72.2456 100.009C58.957 100.532 50.6447 82.8136 57.0462 74.1388" stroke="white" stroke-opacity="0.02" stroke-width="12.6513" stroke-linecap="round" stroke-linejoin="round"/>
<path d="M114.781 26.2983C131.867 22.6665 142.774 5.87142 139.142 -11.2147C135.511 -28.3008 118.716 -39.2076 101.629 -35.5759C84.5434 -31.9441 73.6365 -15.149 77.2683 1.93709C80.9 19.0232 97.6952 29.9301 114.781 26.2983Z" stroke="white" stroke-opacity="0.02" stroke-width="12.6513" stroke-linecap="round" stroke-linejoin="round"/>
</g>
<defs>
<clipPath id="clip0_924_1064">
<rect width="151.816" height="151.816" fill="white" transform="translate(0 -26.9077) rotate(-12)"/>
</clipPath>
</defs>
</svg>
